<svg width="300" height="50" viewBox="0 0 300 50" fill="none" xmlns="http://www.w3.org/2000/svg">
<path d="M40.1706 6.77981C38.6506 6.77981 38.1706 7.53981 38.1706 8.89981V34.5098L14.0206 7.75981C13.7894 7.44757 13.4878 7.19429 13.1402 7.02053C12.7927 6.84677 12.4091 6.75745 12.0206 6.75981C10.5506 6.75981 10.0206 7.75981 10.0206 9.09981V39.6698C9.9787 39.9452 10.0009 40.2265 10.0855 40.4918C10.1701 40.7572 10.3148 40.9995 10.5083 41.1998C10.7018 41.4001 10.939 41.553 11.2013 41.6467C11.4636 41.7403 11.744 41.7722 12.0206 41.7398C12.289 41.7626 12.5591 41.7265 12.8121 41.6341C13.0652 41.5417 13.2949 41.3951 13.4854 41.2046C13.6759 41.0141 13.8224 40.7844 13.9149 40.5314C14.0073 40.2784 14.0434 40.0082 14.0206 39.7398V13.5298L37.9706 40.4498C38.2423 40.8541 38.6061 41.1881 39.032 41.4246C39.4579 41.661 39.9338 41.793 40.4206 41.8098C41.3506 41.8098 42.1106 41.3698 42.1106 39.8098V8.95981C42.1306 7.53981 41.4806 6.77981 40.1706 6.77981Z" fill="#016853"/>
<path d="M55.4806 6.77983C55.2023 6.75964 54.923 6.80166 54.6629 6.90284C54.4029 7.00402 54.1686 7.16183 53.9771 7.36481C53.7856 7.56778 53.6417 7.81085 53.5558 8.07635C53.47 8.34186 53.4443 8.62316 53.4806 8.89983V39.6698C53.4481 39.9511 53.4756 40.2361 53.5614 40.506C53.6472 40.7758 53.7894 41.0244 53.9784 41.2352C54.1675 41.446 54.3992 41.6143 54.6582 41.7289C54.9171 41.8434 55.1975 41.9017 55.4806 41.8998C56.5706 41.8998 57.4806 41.1398 57.4806 39.6098V8.95983C57.5211 8.67958 57.4988 8.39383 57.4153 8.12327C57.3317 7.85272 57.1891 7.60411 56.9977 7.39546C56.8063 7.18681 56.5708 7.02333 56.3085 6.91685C56.0461 6.81038 55.7633 6.76358 55.4806 6.77983Z" fill="#016853"/>
<path d="M97.6006 34.18C96.1806 34.18 92.3706 38.81 85.3406 38.81C77.6606 38.81 71.7706 31.57 71.7706 24.27C71.7706 15.49 79.0206 9.76998 85.3406 9.76998C92.4206 9.76998 95.5806 14.95 97.6506 14.95C97.8778 14.9783 98.1084 14.9562 98.326 14.8854C98.5437 14.8146 98.7431 14.6967 98.9101 14.5402C99.0771 14.3837 99.2076 14.1923 99.2924 13.9797C99.3772 13.7671 99.4141 13.5385 99.4006 13.31C99.4006 11.31 92.4006 6.22998 85.4006 6.22998C75.2206 6.22998 67.9106 14.79 67.9106 24.23C67.9106 34.47 76.2506 42.23 85.3506 42.23C92.3506 42.23 99.1906 38.23 99.1906 35.91C99.2133 35.6891 99.1889 35.4659 99.1189 35.2551C99.0489 35.0443 98.9351 34.8508 98.7848 34.6873C98.6345 34.5238 98.4513 34.3941 98.2471 34.3066C98.043 34.2192 97.8227 34.176 97.6006 34.18Z" fill="#016853"/>
<path d="M139.231 6.82975C138.967 6.79223 138.699 6.81501 138.445 6.89635C138.192 6.9777 137.96 7.11549 137.767 7.29937C137.575 7.48325 137.426 7.70841 137.333 7.9579C137.241 8.20739 137.205 8.47472 137.231 8.73975V22.4697H114.221V8.73975C114.221 8.20931 114.01 7.7006 113.635 7.32553C113.26 6.95046 112.751 6.73975 112.221 6.73975C111.69 6.73975 111.182 6.95046 110.807 7.32553C110.432 7.7006 110.221 8.20931 110.221 8.73975V39.7897C110.196 40.0585 110.231 40.3295 110.323 40.5833C110.415 40.8371 110.561 41.0676 110.752 41.2585C110.943 41.4493 111.173 41.5959 111.427 41.6877C111.681 41.7795 111.952 41.8143 112.221 41.7897C112.488 41.8091 112.757 41.7706 113.008 41.677C113.26 41.5833 113.488 41.4366 113.678 41.2469C113.868 41.0572 114.014 40.8289 114.108 40.5774C114.202 40.326 114.24 40.0574 114.221 39.7897V25.8997H137.271V39.7897C137.261 40.055 137.306 40.3195 137.403 40.5666C137.5 40.8137 137.647 41.0381 137.835 41.2258C138.022 41.4135 138.247 41.5605 138.494 41.6575C138.741 41.7545 139.006 41.7996 139.271 41.7897C139.54 41.8162 139.812 41.7826 140.066 41.6914C140.321 41.6003 140.552 41.4538 140.744 41.2625C140.935 41.0712 141.081 40.84 141.172 40.5853C141.264 40.3306 141.297 40.0589 141.271 39.7897V8.73975C141.29 8.47269 141.249 8.20479 141.151 7.95557C141.053 7.70634 140.901 7.48208 140.705 7.2991C140.51 7.11612 140.276 6.97904 140.021 6.89785C139.766 6.81665 139.496 6.79339 139.231 6.82975Z" fill="#016853"/>
<path d="M177.091 38.2102H156.551V25.9002H173.551C175.131 25.9002 175.791 24.9702 175.791 24.1602C175.791 23.3502 175.021 22.4702 173.501 22.4702H156.551V10.4702H177.091C178.671 10.4702 179.221 9.54016 179.221 8.67016C179.221 7.80016 178.671 6.98016 177.091 6.98016H154.701C154.41 6.95059 154.116 6.98718 153.841 7.08719C153.566 7.1872 153.318 7.34805 153.114 7.5577C152.91 7.76735 152.756 8.02039 152.664 8.29788C152.571 8.57538 152.543 8.87015 152.581 9.16016V39.6702C152.581 40.9202 153.011 41.6702 154.581 41.6702H177.141C178.721 41.6702 179.261 40.8002 179.261 39.8702C179.261 38.9402 178.571 38.2102 177.091 38.2102Z" fill="#016853"/>
<path d="M185.871 9.99012H184.971V8.85012H185.901C186.331 8.85012 186.661 9.06012 186.661 9.39012C186.65 9.48202 186.62 9.57077 186.574 9.65109C186.528 9.73141 186.467 9.80164 186.393 9.85763C186.319 9.91361 186.235 9.95419 186.145 9.97695C186.056 9.99971 185.962 10.0042 185.871 9.99012ZM187.171 9.45012C187.166 9.29904 187.13 9.15052 187.067 9.01333C187.003 8.87615 186.913 8.7531 186.801 8.65146C186.689 8.54983 186.558 8.47168 186.415 8.42163C186.273 8.37159 186.122 8.35067 185.971 8.36012H184.671C184.451 8.36012 184.401 8.46012 184.401 8.63012V11.5201C184.401 11.7301 184.501 11.8401 184.671 11.8401C184.841 11.8401 184.941 11.7301 184.941 11.5201V10.5201H185.811L186.361 11.5201C186.361 11.5201 186.521 11.7901 186.681 11.7901C186.841 11.7901 186.961 11.6801 186.961 11.5201C186.952 11.4028 186.914 11.2895 186.851 11.1901L186.411 10.4301C186.62 10.361 186.805 10.2307 186.94 10.0562C187.076 9.88157 187.156 9.67056 187.171 9.45012Z" fill="#016853"/>
<path d="M185.651 12.7699C185.101 12.7699 184.563 12.6069 184.106 12.3014C183.649 11.9959 183.293 11.5618 183.082 11.0538C182.872 10.5458 182.817 9.98684 182.924 9.44757C183.031 8.9083 183.296 8.41296 183.685 8.02417C184.074 7.63538 184.569 7.37061 185.108 7.26334C185.648 7.15607 186.207 7.21112 186.715 7.42154C187.223 7.63195 187.657 7.98827 187.962 8.44544C188.268 8.90261 188.431 9.44009 188.431 9.98992C188.428 10.7264 188.134 11.432 187.614 11.9528C187.093 12.4735 186.387 12.7673 185.651 12.7699ZM185.651 6.66992C184.994 6.66992 184.352 6.86464 183.806 7.22944C183.26 7.59425 182.835 8.11276 182.584 8.71941C182.332 9.32606 182.267 9.99361 182.395 10.6376C182.523 11.2816 182.839 11.8732 183.303 12.3375C183.768 12.8018 184.359 13.118 185.003 13.2461C185.647 13.3742 186.315 13.3085 186.921 13.0572C187.528 12.8059 188.046 12.3804 188.411 11.8344C188.776 11.2884 188.971 10.6466 188.971 9.98992C188.968 9.11021 188.618 8.26729 187.995 7.64524C187.373 7.02319 186.531 6.67256 185.651 6.66992Z" fill="#016853"/>
<path d="M215.391 3C211.039 3 206.786 4.29028 203.168 6.70767C199.55 9.12506 196.73 12.561 195.065 16.581C193.4 20.6009 192.964 25.0244 193.813 29.292C194.662 33.5596 196.758 37.4796 199.834 40.5564C202.911 43.6331 206.831 45.7284 211.099 46.5773C215.366 47.4262 219.79 46.9905 223.81 45.3253C227.83 43.6602 231.266 40.8404 233.683 37.2225C236.1 33.6047 237.391 29.3512 237.391 25C237.391 19.1652 235.073 13.5694 230.947 9.44365C226.821 5.31785 221.225 3 215.391 3ZM215.391 44C211.633 44 207.959 42.8857 204.835 40.7979C201.71 38.7102 199.275 35.7428 197.837 32.271C196.399 28.7992 196.023 24.9789 196.756 21.2933C197.489 17.6076 199.298 14.2222 201.956 11.565C204.613 8.90777 207.998 7.0982 211.684 6.36508C215.37 5.63196 219.19 6.00822 222.662 7.44629C226.133 8.88435 229.101 11.3196 231.189 14.4442C233.276 17.5687 234.391 21.2422 234.391 25C234.391 30.0391 232.389 34.8718 228.826 38.435C225.262 41.9982 220.43 44 215.391 44Z" fill="#016853"/>
<path d="M289.971 25.95C288.869 25.1064 287.682 24.3791 286.431 23.78C283.351 22.1416 279.919 21.28 276.431 21.27C272.431 21.27 269.731 22.41 266.891 23.61C264.051 24.81 259.891 26.45 256.541 26.45C253.997 26.3834 251.509 25.6968 249.291 24.45C248.08 23.9071 246.93 23.2366 245.861 22.45C245.358 21.9907 244.733 21.6883 244.061 21.58C243.851 21.55 243.638 21.5681 243.437 21.6329C243.236 21.6978 243.052 21.8076 242.899 21.9542C242.747 22.1008 242.63 22.2802 242.558 22.4787C242.485 22.6773 242.459 22.8898 242.481 23.1C242.511 23.4015 242.605 23.6933 242.754 23.9567C242.904 24.2202 243.107 24.4495 243.351 24.63L243.571 24.46L243.411 24.68C244.509 25.5639 245.703 26.322 246.971 26.94C249.892 28.6084 253.196 29.4904 256.561 29.5C260.651 29.5 264.301 27.97 267.561 26.61L267.721 26.55C270.403 25.2784 273.307 24.5381 276.271 24.37C279.433 24.4445 282.526 25.3073 285.271 26.88C286.041 27.26 286.691 27.7 287.271 28.03C287.92 28.5427 288.686 28.8863 289.501 29.03C289.691 29.0591 289.885 29.0449 290.069 28.9885C290.253 28.9322 290.422 28.835 290.563 28.7043C290.705 28.5736 290.815 28.4127 290.885 28.2337C290.956 28.0546 290.985 27.8619 290.971 27.67C290.937 27.3283 290.831 26.9978 290.658 26.701C290.486 26.4042 290.251 26.1481 289.971 25.95Z" fill="#016853"/>
<path d="M289.971 38.0501C288.866 37.2069 287.68 36.4766 286.431 35.8701C283.349 34.2394 279.917 33.3814 276.431 33.3701C272.431 33.3701 269.731 34.5101 266.891 35.7101C264.051 36.9101 259.891 38.5401 256.541 38.5401C253.998 38.4687 251.51 37.7825 249.291 36.5401C248.079 35.9976 246.929 35.3271 245.861 34.5401C245.331 34.0689 244.673 33.766 243.971 33.6701C243.761 33.6418 243.547 33.6614 243.346 33.7275C243.145 33.7937 242.961 33.9045 242.809 34.0518C242.657 34.1991 242.541 34.3789 242.468 34.5778C242.396 34.7767 242.369 34.9895 242.391 35.2001C242.421 35.5002 242.515 35.7905 242.665 36.0523C242.814 36.314 243.017 36.5416 243.261 36.7201L243.481 36.5601L243.321 36.7801C244.45 37.6629 245.674 38.4175 246.971 39.0301C249.89 40.7028 253.196 41.5851 256.561 41.5901C260.651 41.5901 264.301 40.0701 267.561 38.7001H267.721C270.402 37.4244 273.306 36.6839 276.271 36.5201C279.434 36.5882 282.529 37.4514 285.271 39.0301C286.041 39.4101 286.691 39.8401 287.271 40.1701C287.918 40.6865 288.685 41.0305 289.501 41.1701C289.697 41.2014 289.898 41.1863 290.088 41.1261C290.278 41.0659 290.451 40.9623 290.594 40.8235C290.737 40.6846 290.845 40.5144 290.91 40.3263C290.976 40.1383 290.996 39.9376 290.971 39.7401C290.928 39.4052 290.817 39.0825 290.645 38.7919C290.473 38.5013 290.244 38.2489 289.971 38.0501Z" fill="#016853"/>
<path d="M243.291 12.6701C244.436 13.5543 245.669 14.3183 246.971 14.9501C249.889 16.6172 253.19 17.4992 256.551 17.5101C260.641 17.5101 264.291 15.9801 267.551 14.6201L267.711 14.5701C270.395 13.2943 273.303 12.5538 276.271 12.3901C279.432 12.4615 282.525 13.3208 285.271 14.8901C286.031 15.2801 286.691 15.7101 287.271 16.0401C287.923 16.5543 288.692 16.8979 289.511 17.0401C289.701 17.0678 289.895 17.0522 290.079 16.9945C290.262 16.9368 290.43 16.8385 290.571 16.7068C290.711 16.5752 290.82 16.4136 290.889 16.2341C290.958 16.0546 290.986 15.8619 290.971 15.6701C290.971 15.0701 290.691 14.6701 289.971 14.0301C288.866 13.1869 287.68 12.4566 286.431 11.8501C283.349 10.2193 279.917 9.36143 276.431 9.3501C272.431 9.3501 269.731 10.4901 266.891 11.6901C264.051 12.8901 259.891 14.5201 256.541 14.5201C253.997 14.4539 251.508 13.7673 249.291 12.5201C248.081 11.9732 246.932 11.303 245.861 10.5201C245.33 10.0535 244.672 9.75736 243.971 9.6701C243.761 9.64178 243.547 9.66141 243.346 9.72752C243.145 9.79363 242.961 9.9045 242.809 10.0518C242.657 10.1991 242.541 10.3789 242.468 10.5778C242.396 10.7767 242.369 10.9895 242.391 11.2001C242.422 11.4967 242.518 11.7827 242.674 12.037C242.83 12.2914 243.04 12.5077 243.291 12.6701Z" fill="#016853"/>
<path d="M224.281 12.8799C223.833 12.8799 223.403 13.0579 223.086 13.3749C222.769 13.6918 222.591 14.1217 222.591 14.5699V30.6699L208.041 13.4799C207.88 13.2664 207.663 13.1018 207.414 13.0047C207.165 12.9076 206.894 12.8817 206.631 12.9299C206.408 12.9351 206.187 12.9842 205.983 13.0745C205.779 13.1647 205.594 13.2944 205.44 13.456C205.286 13.6175 205.165 13.8079 205.085 14.0162C205.004 14.2245 204.966 14.4466 204.971 14.6699V35.4899C204.953 35.7221 204.983 35.9555 205.06 36.1754C205.136 36.3953 205.258 36.5971 205.416 36.768C205.574 36.9388 205.766 37.0752 205.979 37.1684C206.193 37.2617 206.423 37.3098 206.656 37.3098C206.889 37.3098 207.119 37.2617 207.332 37.1684C207.546 37.0752 207.738 36.9388 207.896 36.768C208.054 36.5971 208.175 36.3953 208.252 36.1754C208.328 35.9555 208.359 35.7221 208.341 35.4899V19.1999L222.971 36.4699C223.136 36.6815 223.363 36.8355 223.621 36.9099C223.841 37.0203 224.085 37.0752 224.331 37.0699C224.77 37.0569 225.187 36.8731 225.494 36.5576C225.8 36.242 225.971 35.8196 225.971 35.3799V14.5699C225.951 14.128 225.767 13.7094 225.454 13.3966C225.141 13.0838 224.723 12.8994 224.281 12.8799Z" fill="#016853"/>
</svg>
